<mxfile host="app.diagrams.net" agent="Mozilla/5.0 (Windows NT 10.0; Win64; x64) AppleWebKit/537.36 (KHTML, like Gecko) Chrome/109.0.0.0 Safari/537.36 Edg/109.0.1518.78" version="25.0.3">
  <diagram id="C5RBs43oDa-KdzZeNtuy" name="Page-1">
    <mxGraphModel dx="1387" dy="796" grid="1" gridSize="10" guides="1" tooltips="1" connect="1" arrows="1" fold="1" page="1" pageScale="1" pageWidth="827" pageHeight="1169" math="0" shadow="0">
      <root>
        <mxCell id="WIyWlLk6GJQsqaUBKTNV-0" />
        <mxCell id="WIyWlLk6GJQsqaUBKTNV-1" parent="WIyWlLk6GJQsqaUBKTNV-0" />
        <mxCell id="NpDtWLrsBzOHL-mdeYpo-4" value="" style="edgeStyle=orthogonalEdgeStyle;rounded=0;sketch=1;hachureGap=4;jiggle=2;curveFitting=1;orthogonalLoop=1;jettySize=auto;html=1;fontFamily=Architects Daughter;fontSource=https%3A%2F%2Ffonts.googleapis.com%2Fcss%3Ffamily%3DArchitects%2BDaughter;" edge="1" parent="WIyWlLk6GJQsqaUBKTNV-1" source="NpDtWLrsBzOHL-mdeYpo-0" target="NpDtWLrsBzOHL-mdeYpo-3">
          <mxGeometry relative="1" as="geometry" />
        </mxCell>
        <mxCell id="NpDtWLrsBzOHL-mdeYpo-0" value="AT+SPRMCLCK=&amp;nbsp;&lt;div&gt;cmdType, contentString&lt;/div&gt;" style="ellipse;shape=cloud;whiteSpace=wrap;html=1;sketch=1;hachureGap=4;jiggle=2;curveFitting=1;fontFamily=Architects Daughter;fontSource=https%3A%2F%2Ffonts.googleapis.com%2Fcss%3Ffamily%3DArchitects%2BDaughter;fillColor=#ffe6cc;strokeColor=#d79b00;" vertex="1" parent="WIyWlLk6GJQsqaUBKTNV-1">
          <mxGeometry x="200" y="60" width="210" height="60" as="geometry" />
        </mxCell>
        <mxCell id="NpDtWLrsBzOHL-mdeYpo-7" value="" style="edgeStyle=orthogonalEdgeStyle;rounded=0;sketch=1;hachureGap=4;jiggle=2;curveFitting=1;orthogonalLoop=1;jettySize=auto;html=1;fontFamily=Architects Daughter;fontSource=https%3A%2F%2Ffonts.googleapis.com%2Fcss%3Ffamily%3DArchitects%2BDaughter;" edge="1" parent="WIyWlLk6GJQsqaUBKTNV-1" source="NpDtWLrsBzOHL-mdeYpo-3" target="NpDtWLrsBzOHL-mdeYpo-5">
          <mxGeometry relative="1" as="geometry" />
        </mxCell>
        <mxCell id="NpDtWLrsBzOHL-mdeYpo-3" value="modem Unlock function" style="whiteSpace=wrap;html=1;fontFamily=Architects Daughter;fillColor=#ffe6cc;strokeColor=#d79b00;sketch=1;hachureGap=4;jiggle=2;curveFitting=1;fontSource=https%3A%2F%2Ffonts.googleapis.com%2Fcss%3Ffamily%3DArchitects%2BDaughter;" vertex="1" parent="WIyWlLk6GJQsqaUBKTNV-1">
          <mxGeometry x="245" y="200" width="120" height="60" as="geometry" />
        </mxCell>
        <mxCell id="NpDtWLrsBzOHL-mdeYpo-9" value="" style="edgeStyle=orthogonalEdgeStyle;rounded=0;sketch=1;hachureGap=4;jiggle=2;curveFitting=1;orthogonalLoop=1;jettySize=auto;html=1;fontFamily=Architects Daughter;fontSource=https%3A%2F%2Ffonts.googleapis.com%2Fcss%3Ffamily%3DArchitects%2BDaughter;" edge="1" parent="WIyWlLk6GJQsqaUBKTNV-1" source="NpDtWLrsBzOHL-mdeYpo-5" target="NpDtWLrsBzOHL-mdeYpo-8">
          <mxGeometry relative="1" as="geometry" />
        </mxCell>
        <mxCell id="NpDtWLrsBzOHL-mdeYpo-10" value="No" style="edgeLabel;html=1;align=center;verticalAlign=middle;resizable=0;points=[];sketch=1;hachureGap=4;jiggle=2;curveFitting=1;fontFamily=Architects Daughter;fontSource=https%3A%2F%2Ffonts.googleapis.com%2Fcss%3Ffamily%3DArchitects%2BDaughter;" vertex="1" connectable="0" parent="NpDtWLrsBzOHL-mdeYpo-9">
          <mxGeometry x="-0.2299" y="-1" relative="1" as="geometry">
            <mxPoint as="offset" />
          </mxGeometry>
        </mxCell>
        <mxCell id="NpDtWLrsBzOHL-mdeYpo-22" value="" style="edgeStyle=orthogonalEdgeStyle;rounded=0;sketch=1;hachureGap=4;jiggle=2;curveFitting=1;orthogonalLoop=1;jettySize=auto;html=1;fontFamily=Architects Daughter;fontSource=https%3A%2F%2Ffonts.googleapis.com%2Fcss%3Ffamily%3DArchitects%2BDaughter;" edge="1" parent="WIyWlLk6GJQsqaUBKTNV-1" source="NpDtWLrsBzOHL-mdeYpo-5" target="NpDtWLrsBzOHL-mdeYpo-21">
          <mxGeometry relative="1" as="geometry" />
        </mxCell>
        <mxCell id="NpDtWLrsBzOHL-mdeYpo-29" value="yes" style="edgeLabel;html=1;align=center;verticalAlign=middle;resizable=0;points=[];sketch=1;hachureGap=4;jiggle=2;curveFitting=1;fontFamily=Architects Daughter;fontSource=https%3A%2F%2Ffonts.googleapis.com%2Fcss%3Ffamily%3DArchitects%2BDaughter;" vertex="1" connectable="0" parent="NpDtWLrsBzOHL-mdeYpo-22">
          <mxGeometry x="-0.3598" y="-2" relative="1" as="geometry">
            <mxPoint as="offset" />
          </mxGeometry>
        </mxCell>
        <mxCell id="NpDtWLrsBzOHL-mdeYpo-5" value="&lt;div&gt;检查解锁码&lt;/div&gt;&lt;div&gt;contentString&lt;br&gt;&lt;/div&gt;格式是否正确" style="rhombus;whiteSpace=wrap;html=1;sketch=1;hachureGap=4;jiggle=2;curveFitting=1;fontFamily=Architects Daughter;fontSource=https%3A%2F%2Ffonts.googleapis.com%2Fcss%3Ffamily%3DArchitects%2BDaughter;fillColor=#ffe6cc;strokeColor=#d79b00;" vertex="1" parent="WIyWlLk6GJQsqaUBKTNV-1">
          <mxGeometry x="241.25" y="320" width="127.5" height="70" as="geometry" />
        </mxCell>
        <mxCell id="NpDtWLrsBzOHL-mdeYpo-14" value="" style="edgeStyle=orthogonalEdgeStyle;rounded=0;sketch=1;hachureGap=4;jiggle=2;curveFitting=1;orthogonalLoop=1;jettySize=auto;html=1;fontFamily=Architects Daughter;fontSource=https%3A%2F%2Ffonts.googleapis.com%2Fcss%3Ffamily%3DArchitects%2BDaughter;" edge="1" parent="WIyWlLk6GJQsqaUBKTNV-1" source="NpDtWLrsBzOHL-mdeYpo-6" target="NpDtWLrsBzOHL-mdeYpo-13">
          <mxGeometry relative="1" as="geometry" />
        </mxCell>
        <mxCell id="NpDtWLrsBzOHL-mdeYpo-15" value="IsUse" style="edgeLabel;html=1;align=center;verticalAlign=middle;resizable=0;points=[];sketch=1;hachureGap=4;jiggle=2;curveFitting=1;fontFamily=Architects Daughter;fontSource=https%3A%2F%2Ffonts.googleapis.com%2Fcss%3Ffamily%3DArchitects%2BDaughter;" vertex="1" connectable="0" parent="NpDtWLrsBzOHL-mdeYpo-14">
          <mxGeometry x="0.0567" y="2" relative="1" as="geometry">
            <mxPoint as="offset" />
          </mxGeometry>
        </mxCell>
        <mxCell id="NpDtWLrsBzOHL-mdeYpo-17" value="" style="edgeStyle=orthogonalEdgeStyle;rounded=0;sketch=1;hachureGap=4;jiggle=2;curveFitting=1;orthogonalLoop=1;jettySize=auto;html=1;fontFamily=Architects Daughter;fontSource=https%3A%2F%2Ffonts.googleapis.com%2Fcss%3Ffamily%3DArchitects%2BDaughter;" edge="1" parent="WIyWlLk6GJQsqaUBKTNV-1" source="NpDtWLrsBzOHL-mdeYpo-6" target="NpDtWLrsBzOHL-mdeYpo-16">
          <mxGeometry relative="1" as="geometry" />
        </mxCell>
        <mxCell id="NpDtWLrsBzOHL-mdeYpo-18" value="NotUse" style="edgeLabel;html=1;align=center;verticalAlign=middle;resizable=0;points=[];sketch=1;hachureGap=4;jiggle=2;curveFitting=1;fontFamily=Architects Daughter;fontSource=https%3A%2F%2Ffonts.googleapis.com%2Fcss%3Ffamily%3DArchitects%2BDaughter;" vertex="1" connectable="0" parent="NpDtWLrsBzOHL-mdeYpo-17">
          <mxGeometry x="0.0612" relative="1" as="geometry">
            <mxPoint as="offset" />
          </mxGeometry>
        </mxCell>
        <mxCell id="NpDtWLrsBzOHL-mdeYpo-6" value="检查解锁码&lt;div&gt;是否used&lt;/div&gt;" style="rhombus;whiteSpace=wrap;html=1;sketch=1;hachureGap=4;jiggle=2;curveFitting=1;fontFamily=Architects Daughter;fontSource=https%3A%2F%2Ffonts.googleapis.com%2Fcss%3Ffamily%3DArchitects%2BDaughter;fillColor=#ffe6cc;strokeColor=#d79b00;" vertex="1" parent="WIyWlLk6GJQsqaUBKTNV-1">
          <mxGeometry x="241.25" y="580" width="127.5" height="70" as="geometry" />
        </mxCell>
        <mxCell id="NpDtWLrsBzOHL-mdeYpo-8" value="&lt;div style=&quot;background-color: rgb(255, 255, 255); font-family: Consolas, &amp;quot;Courier New&amp;quot;, monospace; font-size: 14px; line-height: 19px; white-space: pre;&quot;&gt;OPLUS_SIMLOCK_PREPAID_OFFLINE_UNLOCK_KEY_INVALID&lt;/div&gt;" style="whiteSpace=wrap;html=1;fontFamily=Architects Daughter;fillColor=#ffe6cc;strokeColor=#d79b00;sketch=1;hachureGap=4;jiggle=2;curveFitting=1;fontSource=https%3A%2F%2Ffonts.googleapis.com%2Fcss%3Ffamily%3DArchitects%2BDaughter;" vertex="1" parent="WIyWlLk6GJQsqaUBKTNV-1">
          <mxGeometry x="460" y="325" width="417.5" height="65" as="geometry" />
        </mxCell>
        <mxCell id="NpDtWLrsBzOHL-mdeYpo-13" value="&lt;div style=&quot;background-color: rgb(255, 255, 255); font-family: Consolas, &amp;quot;Courier New&amp;quot;, monospace; font-size: 14px; line-height: 19px; white-space: pre;&quot;&gt;OPLUS_SIMLOCK_PREPAID_OFFLINE_UNLOCK_KEY_USED&lt;/div&gt;" style="whiteSpace=wrap;html=1;fontFamily=Architects Daughter;fillColor=#ffe6cc;strokeColor=#d79b00;sketch=1;hachureGap=4;jiggle=2;curveFitting=1;fontSource=https%3A%2F%2Ffonts.googleapis.com%2Fcss%3Ffamily%3DArchitects%2BDaughter;" vertex="1" parent="WIyWlLk6GJQsqaUBKTNV-1">
          <mxGeometry x="460" y="580" width="420" height="70" as="geometry" />
        </mxCell>
        <mxCell id="NpDtWLrsBzOHL-mdeYpo-31" value="" style="edgeStyle=orthogonalEdgeStyle;rounded=0;sketch=1;hachureGap=4;jiggle=2;curveFitting=1;orthogonalLoop=1;jettySize=auto;html=1;fontFamily=Architects Daughter;fontSource=https%3A%2F%2Ffonts.googleapis.com%2Fcss%3Ffamily%3DArchitects%2BDaughter;" edge="1" parent="WIyWlLk6GJQsqaUBKTNV-1" source="NpDtWLrsBzOHL-mdeYpo-16" target="NpDtWLrsBzOHL-mdeYpo-30">
          <mxGeometry relative="1" as="geometry" />
        </mxCell>
        <mxCell id="NpDtWLrsBzOHL-mdeYpo-16" value="解锁成功&lt;div&gt;&lt;div style=&quot;background-color: rgb(255, 255, 255); font-family: Consolas, &amp;quot;Courier New&amp;quot;, monospace; font-size: 14px; line-height: 19px; white-space: pre;&quot;&gt;&lt;span style=&quot;color: #008000;&quot;&gt;unlock and start a duration timer&lt;/span&gt;&lt;/div&gt;&lt;/div&gt;" style="whiteSpace=wrap;html=1;fontFamily=Architects Daughter;fillColor=#ffe6cc;strokeColor=#d79b00;sketch=1;hachureGap=4;jiggle=2;curveFitting=1;fontSource=https%3A%2F%2Ffonts.googleapis.com%2Fcss%3Ffamily%3DArchitects%2BDaughter;" vertex="1" parent="WIyWlLk6GJQsqaUBKTNV-1">
          <mxGeometry x="174.38" y="750" width="261.25" height="80" as="geometry" />
        </mxCell>
        <mxCell id="NpDtWLrsBzOHL-mdeYpo-23" value="" style="edgeStyle=orthogonalEdgeStyle;rounded=0;sketch=1;hachureGap=4;jiggle=2;curveFitting=1;orthogonalLoop=1;jettySize=auto;html=1;fontFamily=Architects Daughter;fontSource=https%3A%2F%2Ffonts.googleapis.com%2Fcss%3Ffamily%3DArchitects%2BDaughter;" edge="1" parent="WIyWlLk6GJQsqaUBKTNV-1" source="NpDtWLrsBzOHL-mdeYpo-21" target="NpDtWLrsBzOHL-mdeYpo-6">
          <mxGeometry relative="1" as="geometry" />
        </mxCell>
        <mxCell id="NpDtWLrsBzOHL-mdeYpo-28" value="Yes" style="edgeLabel;html=1;align=center;verticalAlign=middle;resizable=0;points=[];sketch=1;hachureGap=4;jiggle=2;curveFitting=1;fontFamily=Architects Daughter;fontSource=https%3A%2F%2Ffonts.googleapis.com%2Fcss%3Ffamily%3DArchitects%2BDaughter;" vertex="1" connectable="0" parent="NpDtWLrsBzOHL-mdeYpo-23">
          <mxGeometry x="-0.1447" y="1" relative="1" as="geometry">
            <mxPoint as="offset" />
          </mxGeometry>
        </mxCell>
        <mxCell id="NpDtWLrsBzOHL-mdeYpo-25" value="" style="edgeStyle=orthogonalEdgeStyle;rounded=0;sketch=1;hachureGap=4;jiggle=2;curveFitting=1;orthogonalLoop=1;jettySize=auto;html=1;fontFamily=Architects Daughter;fontSource=https%3A%2F%2Ffonts.googleapis.com%2Fcss%3Ffamily%3DArchitects%2BDaughter;entryX=0;entryY=0.5;entryDx=0;entryDy=0;" edge="1" parent="WIyWlLk6GJQsqaUBKTNV-1" source="NpDtWLrsBzOHL-mdeYpo-21" target="NpDtWLrsBzOHL-mdeYpo-27">
          <mxGeometry relative="1" as="geometry">
            <mxPoint x="460" y="475" as="targetPoint" />
          </mxGeometry>
        </mxCell>
        <mxCell id="NpDtWLrsBzOHL-mdeYpo-26" value="No" style="edgeLabel;html=1;align=center;verticalAlign=middle;resizable=0;points=[];sketch=1;hachureGap=4;jiggle=2;curveFitting=1;fontFamily=Architects Daughter;fontSource=https%3A%2F%2Ffonts.googleapis.com%2Fcss%3Ffamily%3DArchitects%2BDaughter;" vertex="1" connectable="0" parent="NpDtWLrsBzOHL-mdeYpo-25">
          <mxGeometry x="0.04" relative="1" as="geometry">
            <mxPoint as="offset" />
          </mxGeometry>
        </mxCell>
        <mxCell id="NpDtWLrsBzOHL-mdeYpo-21" value="比较解锁码是否匹配" style="rhombus;whiteSpace=wrap;html=1;fontFamily=Architects Daughter;fillColor=#ffe6cc;strokeColor=#d79b00;sketch=1;hachureGap=4;jiggle=2;curveFitting=1;fontSource=https%3A%2F%2Ffonts.googleapis.com%2Fcss%3Ffamily%3DArchitects%2BDaughter;" vertex="1" parent="WIyWlLk6GJQsqaUBKTNV-1">
          <mxGeometry x="237.5" y="440" width="135" height="70" as="geometry" />
        </mxCell>
        <mxCell id="NpDtWLrsBzOHL-mdeYpo-27" value="&lt;div style=&quot;background-color: rgb(255, 255, 255); font-family: Consolas, &amp;quot;Courier New&amp;quot;, monospace; font-size: 14px; line-height: 19px; white-space: pre;&quot;&gt;OPLUS_SIMLOCK_PREPAID_OFFLINE_UNLOCK_KEY_INVALID&lt;/div&gt;" style="whiteSpace=wrap;html=1;fontFamily=Architects Daughter;fillColor=#ffe6cc;strokeColor=#d79b00;sketch=1;hachureGap=4;jiggle=2;curveFitting=1;fontSource=https%3A%2F%2Ffonts.googleapis.com%2Fcss%3Ffamily%3DArchitects%2BDaughter;" vertex="1" parent="WIyWlLk6GJQsqaUBKTNV-1">
          <mxGeometry x="460" y="445" width="417.5" height="65" as="geometry" />
        </mxCell>
        <mxCell id="NpDtWLrsBzOHL-mdeYpo-33" value="" style="edgeStyle=orthogonalEdgeStyle;rounded=0;sketch=1;hachureGap=4;jiggle=2;curveFitting=1;orthogonalLoop=1;jettySize=auto;html=1;fontFamily=Architects Daughter;fontSource=https%3A%2F%2Ffonts.googleapis.com%2Fcss%3Ffamily%3DArchitects%2BDaughter;" edge="1" parent="WIyWlLk6GJQsqaUBKTNV-1" source="NpDtWLrsBzOHL-mdeYpo-30" target="NpDtWLrsBzOHL-mdeYpo-32">
          <mxGeometry relative="1" as="geometry" />
        </mxCell>
        <mxCell id="NpDtWLrsBzOHL-mdeYpo-30" value="上报解除锁定状态&lt;div&gt;&lt;div style=&quot;background-color: rgb(255, 255, 255); font-family: Consolas, &amp;quot;Courier New&amp;quot;, monospace; font-size: 14px; line-height: 19px; white-space: pre;&quot;&gt;&lt;span style=&quot;color: #bd63c5;&quot;&gt;OPLUS_SIMLOCK_TIMER_STATE_UNLOCKED  -2&lt;/span&gt;&lt;/div&gt;&lt;/div&gt;" style="shape=parallelogram;perimeter=parallelogramPerimeter;whiteSpace=wrap;html=1;fixedSize=1;fontFamily=Architects Daughter;fillColor=#ffe6cc;strokeColor=#d79b00;sketch=1;hachureGap=4;jiggle=2;curveFitting=1;fontSource=https%3A%2F%2Ffonts.googleapis.com%2Fcss%3Ffamily%3DArchitects%2BDaughter;" vertex="1" parent="WIyWlLk6GJQsqaUBKTNV-1">
          <mxGeometry x="139.07999999999998" y="900" width="331.86" height="80" as="geometry" />
        </mxCell>
        <mxCell id="NpDtWLrsBzOHL-mdeYpo-35" value="" style="edgeStyle=orthogonalEdgeStyle;rounded=0;sketch=1;hachureGap=4;jiggle=2;curveFitting=1;orthogonalLoop=1;jettySize=auto;html=1;fontFamily=Architects Daughter;fontSource=https%3A%2F%2Ffonts.googleapis.com%2Fcss%3Ffamily%3DArchitects%2BDaughter;" edge="1" parent="WIyWlLk6GJQsqaUBKTNV-1" source="NpDtWLrsBzOHL-mdeYpo-32" target="NpDtWLrsBzOHL-mdeYpo-34">
          <mxGeometry relative="1" as="geometry" />
        </mxCell>
        <mxCell id="NpDtWLrsBzOHL-mdeYpo-32" value="&lt;div&gt;记录当前系统时间&lt;/div&gt;启动一个timer计时&lt;div&gt;时长为解锁码对应的duration&lt;/div&gt;" style="whiteSpace=wrap;html=1;fontFamily=Architects Daughter;fillColor=#ffe6cc;strokeColor=#d79b00;sketch=1;hachureGap=4;jiggle=2;curveFitting=1;fontSource=https%3A%2F%2Ffonts.googleapis.com%2Fcss%3Ffamily%3DArchitects%2BDaughter;" vertex="1" parent="WIyWlLk6GJQsqaUBKTNV-1">
          <mxGeometry x="177.52" y="1050" width="254.99" height="60" as="geometry" />
        </mxCell>
        <mxCell id="NpDtWLrsBzOHL-mdeYpo-34" value="timer超时，&lt;div&gt;上报锁机命令&lt;/div&gt;" style="whiteSpace=wrap;html=1;fontFamily=Architects Daughter;fillColor=#ffe6cc;strokeColor=#d79b00;sketch=1;hachureGap=4;jiggle=2;curveFitting=1;fontSource=https%3A%2F%2Ffonts.googleapis.com%2Fcss%3Ffamily%3DArchitects%2BDaughter;" vertex="1" parent="WIyWlLk6GJQsqaUBKTNV-1">
          <mxGeometry x="245.01500000000001" y="1170" width="120" height="60" as="geometry" />
        </mxCell>
      </root>
    </mxGraphModel>
  </diagram>
</mxfile>
